<svg width="24" height="20" viewBox="0 0 24 20" fill="none" xmlns="http://www.w3.org/2000/svg">
<path fill-rule="evenodd" clip-rule="evenodd" d="M0.800049 3.55713C0.800049 3.55713 10.4596 8.83762 12.3344 8.83762C14.2996 8.83762 23.8544 3.658 23.8544 3.658L23.8698 2.73256C23.8698 1.71087 23.0096 0.881668 21.9469 0.881668H2.72197C1.66021 0.881668 0.800049 1.71087 0.800049 2.73256V3.55713ZM23.8544 6.43433C23.8544 6.43433 14.3898 11.3826 12.3344 11.3826C10.4596 11.3826 0.814449 6.43433 0.815409 6.43433L0.800049 17.5397C0.800049 18.5614 1.66117 19.3906 2.72197 19.3906H21.9469C23.0096 19.3906 23.8698 18.5614 23.8698 17.5397L23.8544 6.43433Z" fill="white"/>
</svg>
