<svg width="29" height="44" viewBox="0 0 29 44" fill="none" xmlns="http://www.w3.org/2000/svg">
<path d="M7.5 44C11.64 44 15 40.64 15 36.5V29H7.5C3.36 29 0 32.36 0 36.5C0 40.64 3.36 44 7.5 44Z" fill="#0ACF83"/>
<path d="M0 22C0 18.136 3.36 15 7.5 15H15V29H7.5C3.36 29 0 25.864 0 22Z" fill="#A259FF"/>
<path d="M0 7.5C0 3.36 3.36 0 7.5 0H15V15H7.5C3.36 15 0 11.64 0 7.5Z" fill="#F24E1E"/>
<path d="M15 0H22C25.864 0 29 3.36 29 7.5C29 11.64 25.864 15 22 15H15V0Z" fill="#FF7262"/>
<path d="M29 22C29 25.864 25.864 29 22 29C18.136 29 15 25.864 15 22C15 18.136 18.136 15 22 15C25.864 15 29 18.136 29 22Z" fill="#1ABCFE"/>
</svg>
