<svg width="26" height="24" viewBox="0 0 26 24" fill="none" xmlns="http://www.w3.org/2000/svg">
<path fill-rule="evenodd" clip-rule="evenodd" d="M6.31872 3.28915C6.31872 4.80177 5.13761 6.01212 3.24114 6.01212H3.20638C1.38041 6.01212 0.199951 4.80177 0.199951 3.28915C0.199951 1.74453 1.41636 0.568054 3.27698 0.568054C5.13761 0.568054 6.28341 1.74453 6.31872 3.28915ZM5.96049 8.16233V23.9158H0.521568V8.16233H5.96049ZM25.5751 23.9158L25.5753 14.8833C25.5753 10.0445 22.8922 7.79241 19.3131 7.79241C16.4254 7.79241 15.1325 9.32145 14.4106 10.3941V8.16275H8.97105C9.04274 9.64098 8.97105 23.9162 8.97105 23.9162H14.4106V15.1182C14.4106 14.6474 14.4459 14.1777 14.5897 13.8406C14.9828 12.9 15.8778 11.9262 17.3805 11.9262C19.3494 11.9262 20.1364 13.3707 20.1364 15.4877V23.9158H25.5751Z" fill="#ffffff"/>
</svg>
